<svg width="70" xmlns="http://www.w3.org/2000/svg" xmlns:xlink="http://www.w3.org/1999/xlink" version="1.1" x="0px" y="0px" viewBox="0 0 90 90" enable-background="new 0 0 90 90" xml:space="preserve" style="max-width:100%" height="100%"><g style="" fill="currentColor"><path d="M78.3,66L66.6,44.4c1.2-2.7,1.9-5.7,1.9-8.9c0-12.1-9.8-22-22-22c-12.1,0-22,9.8-22,22c0,3.2,0.7,6.3,1.9,9L14.7,66   c-0.4,0.7-0.3,1.5,0.2,2.2c0.5,0.6,1.3,0.9,2,0.7l10-2.3l3.4,9.6c0.3,0.7,0.9,1.3,1.7,1.3c0.1,0,0.1,0,0.1,0c0.7,0,1.4-0.4,1.8-1.1   l10.2-19.1c0.7,0.1,1.5,0.1,2.2,0.1c0.7,0,1.4,0,2.1-0.1L59,76.5c0.4,0.6,1,1,1.8,1c0.1,0,0.1,0,0.2,0c0.8-0.1,1.5-0.6,1.7-1.3   l3.4-9.6l10,2.3c0.8,0.2,1.6-0.1,2-0.7C78.6,67.5,78.7,66.7,78.3,66z M32.6,70.6l-2.5-7c-0.3-1-1.3-1.5-2.3-1.3L20.3,64l8.5-15.4   c2.8,3.8,6.7,6.6,11.3,8L32.6,70.6z M28.5,35.5c0-9.9,8.1-18,18-18c9.9,0,18,8.1,18,18c0,9.9-8.1,18-18,18   C36.6,53.5,28.5,45.4,28.5,35.5z M65.2,62.3c-1-0.2-2,0.3-2.3,1.3l-2.5,7.1l-7.7-14c4.7-1.4,8.8-4.3,11.6-8.2L72.7,64L65.2,62.3z" style="" fill="currentColor"></path></g></svg>