<svg xmlns="http://www.w3.org/2000/svg" viewBox="0 0 100 100" x="0px" y="0px" style="max-width:100%" height="100%"><title style="" fill="currentColor">programming-merge</title><path d="M82,41a9.01,9.01,0,0,0-8.768,7H57.788a4.967,4.967,0,0,1-4.659-3.188L49.6,35.738A8.944,8.944,0,0,0,41.211,30H26.768a9,9,0,1,0,0,4H41.211a4.968,4.968,0,0,1,4.66,3.188L49.4,46.262A8.973,8.973,0,0,0,52.152,50,8.971,8.971,0,0,0,49.4,53.738l-3.53,9.075A4.967,4.967,0,0,1,41.211,66H26.768a9,9,0,1,0,0,4H41.211A8.943,8.943,0,0,0,49.6,64.262l3.53-9.075A4.967,4.967,0,0,1,57.788,52H73.232A9,9,0,1,0,82,41ZM18,37a5,5,0,1,1,5-5A5.006,5.006,0,0,1,18,37Zm0,36a5,5,0,1,1,5-5A5.006,5.006,0,0,1,18,73ZM82,55a5,5,0,1,1,5-5A5.006,5.006,0,0,1,82,55Z" style="" fill="currentColor"></path></svg>