<svg width="50" xmlns="http://www.w3.org/2000/svg" xmlns:xlink="http://www.w3.org/1999/xlink" xmlns:sketch="http://www.bohemiancoding.com/sketch/ns" viewBox="0 0 74 65" version="1.1" x="0px" y="0px" style="max-width:100%" height="100%"><title style="" fill="currentColor">shape</title><description style="" fill="currentColor">Created with Sketch (http://www.bohemiancoding.com/sketch)</description><g stroke="currentColor" stroke-width="1" fill="none" fill-rule="evenodd" sketch:type="MSPage" style=""><path d="M47.6154613,51.4984858 C54.7951633,51.4984858 60.6154613,45.6781878 60.6154613,38.4984858 C60.6154613,31.3187838 54.7951633,25.4984858 47.6154613,25.4984858 C45.7504763,25.4984858 43.9772163,25.8912058 42.3738673,26.5984598 L41.1799803,24.9452658 C43.1301413,24.0176208 45.3121763,23.4984858 47.6154613,23.4984858 C55.8997333,23.4984858 62.6154613,30.2142138 62.6154613,38.4984858 C62.6154613,46.7827578 55.8997333,53.4984858 47.6154613,53.4984858 C41.0843663,53.4984858 35.5281713,49.3244478 33.4689893,43.4984858 L10.6242363,43.4984858 C10.0671053,43.4984858 9.84007032,43.1166498 10.1198493,42.6410268 L29.1110733,10.3559448 C29.3896393,9.88238279 29.8400703,9.88032179 30.1198493,10.3559448 L49.1110733,42.6410268 C49.3896393,43.1145888 49.1662423,43.4984858 48.6066863,43.4984858 L39.0000001,43.4984856 L39,41.4984858 L46.1154613,41.4984858 L29.6154613,13.4984858 L13.1154613,41.4984858 L34.8322697,41.4984858 L35.6132812,43.5299944 C37.5970895,48.2150054 42.2228264,51.4984858 47.6154613,51.4984858 Z M47.6154613,51.4984858" fill="currentColor" sketch:type="MSShapeGroup" style=""></path></g></svg>