<svg width="50" xmlns="http://www.w3.org/2000/svg" xmlns:xlink="http://www.w3.org/1999/xlink" version="1.1" x="0px" y="0px" viewBox="0 0 100 100" enable-background="new 0 0 100 100" xml:space="preserve" style="max-width:100%" height="100%"><g style="" fill="currentColor"><path fill="currentColor" d="M61.996,22.231c-0.929,0-1.858,0.563-2.225,1.434L35.919,74.337c-0.591,1.152-0.028,2.699,1.126,3.233   c1.154,0.534,2.704-0.056,3.182-1.209l23.852-50.7c0.338-0.703,0.311-1.603-0.112-2.278C63.573,22.709,62.785,22.259,61.996,22.231   L61.996,22.231z M32.371,30.189c-0.62,0.056-1.211,0.337-1.633,0.787L14.854,48.41c-0.789,0.872-0.789,2.334,0,3.178l15.883,17.435   c0.845,0.984,2.506,1.096,3.436,0.252c0.958-0.871,1.014-2.53,0.113-3.43L19.839,50.013l14.447-15.832   c0.647-0.703,0.789-1.799,0.394-2.643C34.258,30.695,33.3,30.133,32.371,30.189L32.371,30.189z M67.348,30.189   c-0.901,0.056-1.746,0.646-2.084,1.49c-0.338,0.815-0.142,1.828,0.45,2.502l14.447,15.832L65.714,65.845   c-0.901,0.899-0.845,2.559,0.112,3.43c0.93,0.844,2.591,0.732,3.436-0.252l15.884-17.435c0.788-0.844,0.788-2.306,0-3.178   L69.262,30.976C68.783,30.442,68.051,30.161,67.348,30.189L67.348,30.189z" style=""></path></g></svg>