<svg width="70" xmlns="http://www.w3.org/2000/svg" xmlns:xlink="http://www.w3.org/1999/xlink" version="1.1" x="0px" y="0px" viewBox="0 0 100 100" enable-background="new 0 0 100 100" xml:space="preserve" style="max-width:100%" height="100%"><path d="M25.639,75.81c-1.243,0-2.25-1.007-2.25-2.25V60.166c0-1.243,1.007-2.25,2.25-2.25s2.25,1.007,2.25,2.25V73.56  C27.889,74.803,26.881,75.81,25.639,75.81z" style="" fill="currentColor"></path><path d="M47.558,75.81c-1.243,0-2.25-1.007-2.25-2.25V52.859c0-1.243,1.007-2.25,2.25-2.25s2.25,1.007,2.25,2.25V73.56  C49.808,74.803,48.8,75.81,47.558,75.81z" style="" fill="currentColor"></path><path d="M69.477,75.81c-1.243,0-2.25-1.007-2.25-2.25V40.784c0-1.243,1.007-2.25,2.25-2.25s2.25,1.007,2.25,2.25V73.56  C71.727,74.803,70.719,75.81,69.477,75.81z" style="" fill="currentColor"></path><path d="M21.986,53.283c-0.59,0-1.179-0.23-1.62-0.688c-0.863-0.895-0.837-2.319,0.058-3.182l15.683-15.123  c1.631-1.572,4.26-1.548,5.859,0.053l4.417,4.416l21.547-20.413c0.902-0.854,2.326-0.816,3.181,0.086  c0.854,0.902,0.816,2.326-0.086,3.181L48.239,43.199c-1.087,1.033-2.772,1.01-3.833-0.052l-5.401-5.401L23.548,52.653  C23.111,53.073,22.548,53.283,21.986,53.283z" style="" fill="currentColor"></path><path d="M70.247,32.672c-0.167,0-0.335-0.019-0.505-0.058c-1.211-0.277-1.968-1.484-1.69-2.696l2.541-11.082L59.431,21  c-1.221,0.232-2.401-0.561-2.637-1.781c-0.236-1.22,0.561-2.401,1.781-2.637l14.031-2.72c0.862-0.163,1.74,0.115,2.355,0.751  c0.615,0.636,0.866,1.524,0.672,2.377l-3.195,13.934C72.199,31.967,71.273,32.672,70.247,32.672z" style="" fill="currentColor"></path></svg>